<svg width="31" height="31" viewBox="0 0 31 31" fill="none" xmlns="http://www.w3.org/2000/svg">
<path d="M16.1447 30.5664L15.6246 15.5901L21.8416 29.2249L15.6299 15.5876L26.5914 25.8055L15.6339 15.5834L29.6712 20.8286L15.636 15.5779L30.612 15.052L15.6358 15.5721L29.2706 9.35506L15.6333 15.5667L25.8511 4.60521L15.6291 15.5627L20.8743 1.52541L15.6236 15.5606L15.0977 0.584626L15.6178 15.5608L9.40074 1.92608L15.6124 15.5633L4.65087 5.34554L15.6084 15.5676L1.57108 10.3223L15.6063 15.5731L0.630308 16.099L15.6065 15.5789L1.97175 21.7959L15.609 15.5843L5.3912 26.5458L15.6133 15.5882L10.368 29.6256L15.6188 15.5903L16.1447 30.5664Z" fill="#F0C3D2" stroke="#F5F5F5"/>
</svg>
