<svg width="67" height="32" viewBox="0 0 67 32" fill="none" xmlns="http://www.w3.org/2000/svg">
<path fill-rule="evenodd" clip-rule="evenodd" d="M38.625 4.9071V9.81418L44.7429 9.81726C48.3852 9.8192 51.0956 9.87254 51.4411 9.94941C52.4156 10.1658 53.4121 10.6951 54.2457 11.4385C55.1576 12.2521 55.6153 12.942 55.9687 14.0362C56.2021 14.7588 56.2179 15.3368 56.2179 23.1448V31.4819H61.3872H66.5565L66.5129 22.8152L66.4694 14.1485L59.1284 7.07426L51.7876 0H45.2062H38.625V4.9071ZM10.5822 5.03112V9.94165H5.2911H0V20.8393V31.7368H5.2911H10.5822V20.8335V9.93019L16.9646 9.96775C23.1571 10.0042 23.3697 10.0137 24.1119 10.284C25.3305 10.7278 26.4795 11.5972 27.1537 12.5854C28.2977 14.2626 28.2311 13.6343 28.2772 23.1653L28.3181 31.6094H33.4081H38.4981L38.4623 22.9424L38.4266 14.2755L31.1182 7.23332L23.8098 0.191185L17.1961 0.155881L10.5822 0.120574V5.03112ZM63.9946 0.253386C62.9449 0.55839 62.2082 1.62814 62.352 2.639C62.6319 4.60668 64.9844 5.37703 66.3303 3.94174C67.2371 2.97446 67.2216 1.71226 66.2922 0.860082C65.5785 0.205716 64.8348 0.00943265 63.9946 0.253386ZM65.2186 0.509319C66.238 0.782205 66.9174 1.92524 66.6433 2.9059C66.2365 4.36069 64.3932 4.87192 63.2534 3.84602C62.1471 2.85032 62.5318 1.05955 63.9562 0.57394C64.6007 0.354204 64.633 0.352547 65.2186 0.509319ZM63.89 2.35796C63.89 3.34932 63.926 3.5688 64.0884 3.5688C64.2317 3.5688 64.2868 3.4272 64.2868 3.05897C64.2868 2.61491 64.3252 2.54927 64.5845 2.55016C64.7925 2.5508 64.9728 2.70426 65.1837 3.06C65.3495 3.33976 65.5429 3.5688 65.6135 3.5688C65.7915 3.5688 65.7784 3.51553 65.4801 3.02851C65.2194 2.60268 65.2194 2.60038 65.4801 2.38524C65.8299 2.09667 65.8141 1.5927 65.4478 1.34556C65.2814 1.23315 64.8798 1.14711 64.5219 1.14711H63.89V2.35796ZM65.2695 1.60226C65.3838 1.71251 65.4773 1.84443 65.4773 1.89541C65.4773 2.11069 65.1303 2.29423 64.7233 2.29423C64.3126 2.29423 64.2868 2.26784 64.2868 1.84813C64.2868 1.43988 64.3196 1.40203 64.6743 1.40203C64.8872 1.40203 65.1551 1.49214 65.2695 1.60226Z" fill="#FF002E"/>
</svg>
